<svg
        xmlns="http://www.w3.org/2000/svg"
        xmlns:xlink="http://www.w3.org/1999/xlink"
        width="18px" height="26px">
    <path fill-rule="evenodd"  fill="rgb(155, 203, 255)"
          d="M14.000,4.021 L14.000,0.021 L18.000,0.021 L18.000,4.021 L14.000,4.021 ZM7.000,4.021 L7.000,0.021 L11.000,0.021 L11.000,4.021 L7.000,4.021 ZM-0.000,4.021 L-0.000,0.021 L4.000,0.021 L4.000,4.021 L-0.000,4.021 ZM14.000,11.021 L14.000,7.021 L18.000,7.021 L18.000,11.021 L14.000,11.021 ZM7.000,11.021 L7.000,7.021 L11.000,7.021 L11.000,11.021 L7.000,11.021 ZM-0.000,11.021 L-0.000,7.021 L4.000,7.021 L4.000,11.021 L-0.000,11.021 ZM14.000,18.021 L14.000,14.021 L18.000,14.021 L18.000,18.021 L14.000,18.021 ZM7.000,18.021 L7.000,14.021 L11.000,14.021 L11.000,18.021 L7.000,18.021 ZM-0.000,18.021 L-0.000,14.021 L4.000,14.021 L4.000,18.021 L-0.000,18.021 ZM7.000,25.021 L7.000,21.021 L11.000,21.021 L11.000,25.021 L7.000,25.021 Z"/>
</svg>