<svg 
 xmlns="http://www.w3.org/2000/svg"
 xmlns:xlink="http://www.w3.org/1999/xlink"
 width="200px" height="55px">
<path fill-rule="evenodd"  fill="rgb(61, 71, 83)"
 d="M174.799,39.830 L170.000,52.404 C169.845,52.795 169.664,53.147 169.458,53.462 C169.252,53.776 169.002,54.049 168.710,54.278 C168.417,54.507 168.065,54.686 167.652,54.814 C167.239,54.941 166.749,55.005 166.181,55.005 C166.060,55.005 165.854,54.996 165.562,54.979 C165.269,54.962 164.929,54.928 164.542,54.877 C164.155,54.826 163.742,54.758 163.304,54.673 C162.865,54.588 162.439,54.469 162.027,54.316 L162.594,51.128 C162.680,51.145 162.809,51.166 162.981,51.192 C163.153,51.218 163.334,51.243 163.523,51.269 C163.712,51.294 163.888,51.315 164.052,51.332 C164.215,51.349 164.332,51.358 164.400,51.358 C165.002,51.375 165.428,51.303 165.678,51.141 C165.927,50.979 166.146,50.669 166.336,50.210 L166.852,48.884 L164.581,48.884 C164.495,48.629 164.370,48.268 164.207,47.800 C164.043,47.333 163.859,46.818 163.652,46.257 C163.446,45.696 163.235,45.109 163.020,44.497 C162.805,43.885 162.594,43.295 162.388,42.725 C162.181,42.155 161.992,41.641 161.820,41.182 C161.648,40.723 161.519,40.357 161.433,40.085 L160.169,40.085 L160.169,36.795 L165.046,36.795 L167.884,46.257 L167.987,46.257 C168.004,46.172 168.069,45.968 168.181,45.645 C168.292,45.322 168.417,44.940 168.555,44.497 C168.692,44.056 168.843,43.584 169.006,43.082 C169.170,42.581 169.325,42.105 169.471,41.654 C169.617,41.204 169.746,40.812 169.858,40.480 C169.970,40.149 170.043,39.932 170.077,39.830 L168.864,39.830 L168.864,36.795 L175.960,36.795 L175.960,39.830 L174.799,39.830 ZM157.563,49.649 C157.253,49.683 156.960,49.709 156.685,49.726 C156.410,49.742 156.195,49.751 156.040,49.751 C155.799,49.751 155.563,49.742 155.331,49.726 C155.099,49.709 154.866,49.662 154.634,49.586 C154.402,49.509 154.183,49.385 153.976,49.216 C153.770,49.046 153.589,48.816 153.434,48.527 L151.189,43.987 L149.951,44.905 L149.951,46.385 L151.138,46.385 L151.138,49.369 L143.500,49.369 L143.500,46.385 L145.048,46.385 L145.048,34.015 L143.423,34.015 L143.423,31.108 L149.951,31.108 L149.951,40.774 L152.247,38.989 L152.247,36.821 L158.518,36.821 L158.518,39.805 L156.763,39.805 L154.750,41.309 L157.537,46.436 L159.292,46.742 L159.292,49.318 C159.051,49.403 158.780,49.471 158.479,49.522 C158.178,49.573 157.872,49.615 157.563,49.649 ZM133.974,49.675 C132.856,49.675 131.699,49.586 130.503,49.407 C129.308,49.228 128.168,48.918 127.084,48.476 C127.084,47.711 127.080,46.937 127.071,46.155 C127.063,45.374 127.059,44.591 127.059,43.809 L130.439,43.809 L130.465,45.671 C130.723,45.773 130.998,45.854 131.290,45.913 C131.583,45.973 131.875,46.024 132.168,46.066 C132.460,46.108 132.735,46.138 132.993,46.155 C133.251,46.172 133.475,46.181 133.664,46.181 C134.713,46.181 135.449,46.011 135.870,45.671 C136.292,45.331 136.503,44.922 136.503,44.447 C136.503,44.022 136.382,43.698 136.141,43.477 C135.900,43.257 135.574,43.078 135.161,42.942 C133.957,42.551 132.852,42.189 131.845,41.858 C130.839,41.526 129.974,41.157 129.252,40.748 C128.529,40.340 127.970,39.847 127.575,39.269 C127.179,38.692 126.981,37.952 126.981,37.051 C126.981,35.316 127.605,33.960 128.852,32.983 C130.099,32.005 131.952,31.516 134.413,31.516 C134.894,31.516 135.406,31.538 135.948,31.580 C136.490,31.623 137.032,31.690 137.573,31.784 C138.115,31.878 138.644,32.001 139.160,32.154 C139.677,32.307 140.158,32.485 140.605,32.689 C140.605,33.438 140.609,34.177 140.618,34.908 C140.627,35.639 140.631,36.379 140.631,37.127 L137.199,37.127 C137.199,36.821 137.195,36.515 137.186,36.209 C137.178,35.903 137.174,35.605 137.174,35.316 C136.829,35.180 136.412,35.078 135.922,35.010 C135.432,34.942 135.023,34.908 134.696,34.908 C133.784,34.908 133.139,35.070 132.761,35.393 C132.383,35.716 132.193,36.090 132.193,36.515 C132.193,36.804 132.297,37.059 132.503,37.280 C132.710,37.501 132.985,37.697 133.329,37.867 C133.673,38.037 134.064,38.194 134.503,38.338 C134.942,38.483 135.393,38.623 135.858,38.759 C136.735,39.014 137.548,39.282 138.296,39.562 C139.044,39.843 139.698,40.187 140.257,40.595 C140.816,41.004 141.255,41.501 141.573,42.087 C141.891,42.674 142.050,43.401 142.050,44.268 C142.050,46.019 141.380,47.358 140.038,48.285 C138.696,49.212 136.674,49.675 133.974,49.675 ZM124.091,49.356 C123.850,49.398 123.622,49.432 123.407,49.458 C123.192,49.483 123.007,49.496 122.853,49.496 C122.371,49.496 121.992,49.403 121.717,49.216 C121.442,49.029 121.296,48.612 121.279,47.966 C121.261,47.966 121.253,47.962 121.253,47.953 C121.253,47.945 121.244,47.941 121.227,47.941 C120.745,48.349 120.289,48.663 119.860,48.884 C119.429,49.105 119.029,49.267 118.660,49.369 C118.289,49.471 117.959,49.530 117.666,49.547 C117.374,49.564 117.133,49.573 116.944,49.573 C116.221,49.573 115.623,49.454 115.150,49.216 C114.677,48.977 114.303,48.680 114.028,48.323 C113.752,47.966 113.563,47.580 113.460,47.163 C113.357,46.746 113.305,46.359 113.305,46.002 C113.305,44.931 113.697,44.068 114.480,43.414 C115.262,42.759 116.445,42.381 118.027,42.278 L121.227,42.074 L121.227,41.259 C121.227,40.187 121.038,39.447 120.659,39.039 C120.281,38.632 119.576,38.428 118.544,38.428 C117.924,38.428 117.283,38.487 116.621,38.606 C115.959,38.725 115.309,38.895 114.673,39.116 C114.587,38.878 114.509,38.644 114.441,38.415 C114.372,38.185 114.303,37.952 114.234,37.713 C114.957,37.391 115.739,37.144 116.582,36.974 C117.425,36.804 118.242,36.719 119.034,36.719 C120.358,36.719 121.390,37.025 122.130,37.637 C122.870,38.249 123.240,39.320 123.240,40.850 L123.240,47.787 L125.227,47.787 L125.356,48.986 C125.201,49.071 125.011,49.144 124.788,49.203 C124.564,49.263 124.332,49.314 124.091,49.356 ZM121.201,43.426 L118.053,43.630 C117.227,43.681 116.599,43.907 116.170,44.306 C115.739,44.706 115.524,45.203 115.524,45.798 C115.524,46.529 115.705,47.061 116.066,47.392 C116.428,47.724 117.021,47.889 117.847,47.889 C118.380,47.889 118.952,47.753 119.563,47.481 C120.173,47.210 120.720,46.853 121.201,46.410 L121.201,43.426 ZM112.842,38.673 C112.738,38.611 112.606,38.579 112.445,38.579 C112.049,38.579 111.641,38.647 111.219,38.783 C110.798,38.919 110.385,39.089 109.981,39.293 C109.576,39.497 109.198,39.718 108.845,39.956 C108.493,40.194 108.187,40.415 107.929,40.619 L107.929,40.883 L107.929,41.537 L107.929,47.787 L109.916,47.787 L109.916,49.369 L103.981,49.369 L103.981,47.787 L105.839,47.787 L105.839,38.555 L104.007,38.555 L104.007,36.923 L107.878,36.923 L107.878,38.657 L107.929,38.657 C108.187,38.453 108.493,38.232 108.845,37.994 C109.198,37.756 109.576,37.535 109.981,37.331 C110.385,37.127 110.798,36.957 111.219,36.821 C111.641,36.685 112.049,36.617 112.445,36.617 C112.651,36.617 112.810,36.668 112.922,36.770 C113.034,36.872 113.090,37.059 113.090,37.331 C113.090,37.620 113.030,37.965 112.909,38.364 C112.888,38.434 112.866,38.542 112.842,38.673 ZM100.627,38.300 C100.919,38.606 101.147,39.006 101.311,39.499 C101.474,39.992 101.556,40.502 101.556,41.029 C101.556,41.692 101.423,42.287 101.156,42.814 C100.889,43.342 100.524,43.788 100.060,44.153 C99.595,44.519 99.040,44.799 98.395,44.995 C97.750,45.190 97.040,45.288 96.266,45.288 L94.873,45.288 C94.219,45.288 93.720,45.343 93.376,45.451 C93.032,45.560 92.860,45.807 92.860,46.193 C92.860,46.478 92.981,46.692 93.222,46.834 C93.462,46.977 93.780,47.048 94.176,47.048 L97.427,47.048 C98.976,47.048 100.167,47.368 101.001,48.007 C101.836,48.647 102.253,49.581 102.253,50.809 C102.253,52.020 101.719,53.001 100.653,53.752 C99.586,54.502 98.064,54.877 96.086,54.877 C95.054,54.877 94.193,54.779 93.505,54.584 C92.817,54.388 92.267,54.124 91.854,53.793 C91.441,53.461 91.148,53.078 90.977,52.644 C90.805,52.210 90.719,51.755 90.719,51.279 C90.719,50.547 90.899,49.922 91.260,49.403 C91.622,48.884 91.991,48.531 92.370,48.344 C91.854,48.242 91.467,48.025 91.209,47.694 C90.951,47.363 90.822,46.943 90.822,46.433 C90.822,46.060 90.895,45.745 91.041,45.491 C91.187,45.236 91.368,45.033 91.583,44.879 C91.798,44.726 92.030,44.608 92.280,44.523 C92.529,44.438 92.757,44.379 92.964,44.344 C92.516,44.140 92.108,43.784 91.738,43.273 C91.368,42.763 91.183,42.041 91.183,41.106 C91.183,40.289 91.334,39.597 91.635,39.027 C91.935,38.457 92.327,37.994 92.809,37.637 C93.290,37.280 93.832,37.021 94.434,36.859 C95.036,36.698 95.638,36.617 96.241,36.617 C96.653,36.617 97.066,36.647 97.479,36.706 C97.892,36.766 98.270,36.838 98.614,36.923 L102.691,36.923 L102.691,38.249 L100.679,38.249 L100.627,38.300 ZM92.951,51.702 C93.045,51.983 93.226,52.229 93.493,52.442 C93.759,52.654 94.125,52.828 94.589,52.965 C95.054,53.101 95.656,53.169 96.395,53.169 C97.634,53.169 98.559,52.956 99.169,52.531 C99.780,52.106 100.085,51.545 100.085,50.848 C100.085,50.593 100.038,50.333 99.943,50.070 C99.849,49.806 99.689,49.568 99.466,49.356 C99.242,49.144 98.937,48.969 98.550,48.833 C98.163,48.697 97.686,48.629 97.118,48.629 L94.305,48.629 C94.133,48.680 93.957,48.782 93.776,48.935 C93.596,49.088 93.436,49.267 93.299,49.471 C93.161,49.675 93.045,49.895 92.951,50.134 C92.856,50.371 92.809,50.609 92.809,50.848 C92.809,51.137 92.856,51.422 92.951,51.702 ZM99.272,40.136 C99.178,39.813 99.010,39.516 98.769,39.244 C98.528,38.972 98.210,38.742 97.815,38.555 C97.419,38.368 96.928,38.275 96.344,38.275 C95.363,38.275 94.619,38.521 94.112,39.014 C93.604,39.507 93.351,40.179 93.351,41.029 C93.351,41.845 93.587,42.495 94.060,42.980 C94.533,43.464 95.208,43.707 96.086,43.707 C97.049,43.707 97.844,43.482 98.473,43.031 C99.100,42.581 99.414,41.905 99.414,41.004 C99.414,40.748 99.367,40.459 99.272,40.136 ZM80.811,45.365 C80.914,45.874 81.098,46.321 81.365,46.703 C81.632,47.086 81.993,47.388 82.449,47.609 C82.905,47.830 83.485,47.941 84.191,47.941 C84.930,47.941 85.597,47.868 86.191,47.724 C86.784,47.580 87.442,47.362 88.165,47.073 L88.732,48.425 C87.975,48.816 87.214,49.105 86.449,49.292 C85.683,49.479 84.879,49.573 84.036,49.573 C82.918,49.573 81.997,49.394 81.275,49.037 C80.552,48.680 79.985,48.204 79.572,47.609 C79.159,47.014 78.875,46.334 78.720,45.569 C78.566,44.803 78.488,44.004 78.488,43.171 C78.488,42.610 78.557,41.956 78.695,41.207 C78.832,40.459 79.099,39.750 79.494,39.078 C79.890,38.406 80.449,37.832 81.172,37.357 C81.894,36.881 82.840,36.642 84.010,36.642 C84.818,36.642 85.507,36.753 86.074,36.974 C86.642,37.195 87.111,37.484 87.481,37.841 C87.850,38.198 88.139,38.598 88.345,39.039 C88.552,39.482 88.706,39.924 88.810,40.366 C88.913,40.808 88.973,41.225 88.990,41.616 C89.007,42.007 89.016,42.330 89.016,42.585 L89.016,43.707 L80.656,43.707 C80.656,44.302 80.707,44.855 80.811,45.365 ZM86.978,42.126 C86.960,41.582 86.904,41.076 86.810,40.608 C86.715,40.141 86.552,39.733 86.320,39.384 C86.087,39.036 85.782,38.763 85.404,38.568 C85.025,38.373 84.552,38.275 83.984,38.275 C83.434,38.275 82.956,38.381 82.552,38.593 C82.148,38.806 81.817,39.087 81.559,39.435 C81.301,39.784 81.103,40.192 80.965,40.659 C80.827,41.127 80.742,41.616 80.707,42.126 L86.978,42.126 ZM73.663,49.496 C72.438,49.496 71.563,49.241 71.041,48.731 C70.518,48.221 70.257,47.456 70.257,46.436 L70.257,38.555 L68.425,38.555 L68.425,37.331 L70.335,36.744 L71.014,33.990 L72.373,33.760 L72.373,36.923 L76.166,36.923 L76.166,38.555 L72.347,38.555 L72.347,45.696 C72.347,46.002 72.364,46.279 72.399,46.525 C72.433,46.772 72.511,46.984 72.631,47.163 C72.751,47.341 72.923,47.481 73.147,47.583 C73.371,47.685 73.680,47.736 74.076,47.736 C74.386,47.736 74.738,47.707 75.134,47.647 C75.530,47.588 75.977,47.490 76.476,47.354 L76.863,48.808 C76.398,49.029 75.878,49.199 75.302,49.318 C74.725,49.436 74.179,49.496 73.663,49.496 ZM65.449,49.496 C64.770,49.496 64.304,49.339 64.051,49.024 C63.799,48.710 63.673,48.238 63.673,47.609 L63.673,41.157 C63.673,40.732 63.651,40.353 63.608,40.021 C63.565,39.690 63.470,39.409 63.325,39.180 C63.178,38.950 62.959,38.780 62.667,38.670 C62.374,38.559 61.978,38.504 61.480,38.504 C60.877,38.504 60.224,38.636 59.519,38.899 C58.813,39.163 58.194,39.447 57.661,39.754 L57.661,49.369 L55.571,49.369 L55.571,38.555 L53.687,38.555 L53.687,36.923 L57.661,36.923 L57.661,38.045 C58.386,37.603 59.145,37.259 59.939,37.012 C60.732,36.766 61.449,36.642 62.087,36.642 C62.915,36.642 63.575,36.757 64.067,36.987 C64.559,37.216 64.930,37.514 65.180,37.879 C65.430,38.245 65.590,38.649 65.659,39.091 C65.728,39.533 65.763,39.966 65.763,40.392 L65.789,47.787 L67.724,47.787 L67.724,49.037 C67.397,49.190 67.010,49.305 66.563,49.381 C66.115,49.458 65.745,49.496 65.449,49.496 ZM50.509,49.522 C49.906,49.522 49.464,49.398 49.180,49.152 C48.896,48.906 48.745,48.434 48.728,47.736 L48.728,38.555 L47.412,38.555 L47.412,36.949 L50.818,36.949 L50.818,47.787 L52.702,47.787 L52.702,49.037 C52.375,49.190 52.001,49.309 51.580,49.394 C51.158,49.479 50.801,49.522 50.509,49.522 ZM49.683,35.010 C49.304,35.010 48.982,34.874 48.715,34.602 C48.448,34.330 48.316,34.015 48.316,33.658 C48.316,33.267 48.448,32.940 48.715,32.676 C48.982,32.413 49.304,32.281 49.683,32.281 C50.079,32.281 50.410,32.413 50.676,32.676 C50.943,32.940 51.076,33.267 51.076,33.658 C51.076,34.015 50.943,34.330 50.676,34.602 C50.410,34.874 50.079,35.010 49.683,35.010 Z"/>
<path fill-rule="evenodd"  fill="rgb(64, 196, 244)"
 d="M192.984,54.760 C189.808,54.760 187.129,52.660 186.267,49.781 L177.771,49.781 L179.282,45.797 L186.267,45.797 C187.129,42.919 189.808,40.819 192.984,40.819 C196.856,40.819 199.995,43.939 199.995,47.789 C199.995,51.639 196.856,54.760 192.984,54.760 ZM192.984,43.806 C190.771,43.806 188.977,45.589 188.977,47.789 C188.977,49.989 190.771,51.772 192.984,51.772 C195.197,51.772 196.990,49.989 196.990,47.789 C196.990,45.589 195.197,43.806 192.984,43.806 ZM98.664,30.860 L98.092,30.860 C98.777,28.824 99.165,26.653 99.165,24.388 C99.165,13.113 89.972,3.974 78.632,3.974 C68.214,3.974 59.626,11.693 58.295,21.689 L58.302,21.708 C58.290,21.798 58.266,21.883 58.255,21.973 C58.008,21.722 57.750,21.483 57.485,21.252 C57.459,21.230 57.433,21.206 57.407,21.184 C56.563,20.463 55.629,19.844 54.624,19.344 C54.624,19.341 54.625,19.338 54.625,19.336 C52.807,18.428 50.757,17.915 48.583,17.915 C41.115,17.915 35.061,23.934 35.061,31.358 C35.061,34.105 35.894,36.657 37.316,38.786 C37.027,38.650 36.727,38.532 36.424,38.423 L36.424,38.424 C36.269,38.368 36.109,38.324 35.951,38.275 C35.795,38.228 35.639,38.180 35.480,38.140 C35.332,38.103 35.181,38.071 35.031,38.040 C34.835,38.000 34.637,37.966 34.438,37.938 C34.315,37.921 34.192,37.901 34.067,37.888 C33.735,37.854 33.400,37.831 33.058,37.831 C32.813,37.831 32.572,37.851 32.331,37.868 C32.331,37.868 32.331,37.868 32.331,37.868 C27.140,38.239 23.042,42.534 23.042,47.789 C23.042,48.471 23.111,49.137 23.243,49.781 L23.042,49.781 L19.180,49.781 L13.733,49.781 C12.871,52.659 10.191,54.760 7.016,54.760 C3.144,54.760 0.005,51.639 0.005,47.789 C0.005,43.939 3.144,40.819 7.016,40.819 C10.191,40.819 12.871,42.919 13.733,45.797 L19.035,45.797 L19.173,45.935 C20.008,39.718 24.955,34.802 31.213,33.983 L31.286,34.045 C31.147,33.168 31.055,32.275 31.055,31.358 C31.055,21.734 38.903,13.932 48.583,13.932 C51.155,13.932 53.585,14.503 55.782,15.498 C59.356,6.421 68.235,-0.010 78.632,-0.010 C92.185,-0.010 103.172,10.914 103.172,24.388 C103.172,26.632 102.844,28.797 102.272,30.860 L98.664,30.860 ZM7.016,43.806 C4.803,43.806 3.009,45.589 3.009,47.789 C3.009,49.989 4.803,51.772 7.016,51.772 C9.229,51.772 11.022,49.989 11.022,47.789 C11.022,45.589 9.229,43.806 7.016,43.806 Z"/>
<path fill-rule="evenodd"  fill="rgb(64, 196, 244)"
 d="M192.984,54.760 C189.808,54.760 187.129,52.660 186.267,49.781 L177.771,49.781 L179.282,45.797 L186.267,45.797 C187.129,42.919 189.808,40.819 192.984,40.819 C196.856,40.819 199.995,43.939 199.995,47.789 C199.995,51.639 196.856,54.760 192.984,54.760 ZM192.984,43.806 C190.771,43.806 188.977,45.589 188.977,47.789 C188.977,49.989 190.771,51.772 192.984,51.772 C195.197,51.772 196.990,49.989 196.990,47.789 C196.990,45.589 195.197,43.806 192.984,43.806 Z"/>
</svg>